<?xml version="1.0" encoding="UTF-8" standalone="no"?>
<!-- Created with Inkscape (http://www.inkscape.org/) -->

<svg
   xmlns:dc="http://purl.org/dc/elements/1.1/"
   xmlns:cc="http://creativecommons.org/ns#"
   xmlns:rdf="http://www.w3.org/1999/02/22-rdf-syntax-ns#"
   xmlns:svg="http://www.w3.org/2000/svg"
   xmlns="http://www.w3.org/2000/svg"
   xmlns:sodipodi="http://sodipodi.sourceforge.net/DTD/sodipodi-0.dtd"
   xmlns:inkscape="http://www.inkscape.org/namespaces/inkscape"
   width="56.03838mm"
   height="47.97789mm"
   viewBox="0 0 56.03838 47.97789"
   version="1.1"
   id="svg1403"
   inkscape:version="0.92.4 (5da689c313, 2019-01-14)"
   sodipodi:docname="logo.svg">
  <defs
     id="defs1397" />
  <sodipodi:namedview
     id="base"
     pagecolor="#eaeaea"
     bordercolor="#666666"
     borderopacity="1.0"
     inkscape:pageopacity="0"
     inkscape:pageshadow="2"
     inkscape:zoom="1.979899"
     inkscape:cx="49.951128"
     inkscape:cy="77.488905"
     inkscape:document-units="mm"
     inkscape:current-layer="layer1"
     showgrid="false"
     inkscape:window-width="1920"
     inkscape:window-height="1017"
     inkscape:window-x="-8"
     inkscape:window-y="-8"
     inkscape:window-maximized="1"
     fit-margin-top="0"
     fit-margin-left="0"
     fit-margin-right="0"
     fit-margin-bottom="0" />
  <metadata
     id="metadata1400">
    <rdf:RDF>
      <cc:Work
         rdf:about="">
        <dc:format>image/svg+xml</dc:format>
        <dc:type
           rdf:resource="http://purl.org/dc/dcmitype/StillImage" />
        <dc:title></dc:title>
      </cc:Work>
    </rdf:RDF>
  </metadata>
  <g
     inkscape:label="Ebene 1"
     inkscape:groupmode="layer"
     id="layer1"
     transform="translate(197.39178,-72.665333)">
    <g
       id="g835"
       transform="matrix(1.0589931,0,0,1.0589931,9.9918191,-5.7019384)">
      <g
         id="g1354"
         transform="matrix(-0.33316857,0,0,0.33316857,-442.57082,-96.919528)"
         style="fill:#ffffff">
        <rect
           style="fill:#ffffff;fill-opacity:1;stroke:none;stroke-width:1.82026625;stroke-linecap:round;stroke-linejoin:round;stroke-miterlimit:4;stroke-dasharray:none;stroke-opacity:1"
           id="rect1350"
           width="96.08744"
           height="80.179688"
           x="-1038.7399"
           y="-201.09494"
           transform="rotate(-45)" />
        <circle
           style="fill:#ffffff;fill-opacity:1;stroke:none;stroke-width:1.99998534;stroke-linecap:round;stroke-linejoin:round;stroke-miterlimit:4;stroke-dasharray:none;stroke-opacity:1"
           id="circle1352"
           cx="-942.99969"
           cy="-160.91525"
           r="40"
           transform="rotate(-45)" />
      </g>
      <g
         transform="matrix(0.33316857,0,0,0.33316857,103.82563,-96.919525)"
         id="g1360"
         style="fill:#ffffff">
        <rect
           transform="rotate(-45)"
           y="-201.09494"
           x="-1038.7399"
           height="80.179688"
           width="96.08744"
           id="rect1356"
           style="fill:#ffffff;fill-opacity:1;stroke:none;stroke-width:1.82026625;stroke-linecap:round;stroke-linejoin:round;stroke-miterlimit:4;stroke-dasharray:none;stroke-opacity:1" />
        <circle
           transform="rotate(-45)"
           r="40"
           cy="-160.91525"
           cx="-942.99969"
           id="circle1358"
           style="fill:#ffffff;fill-opacity:1;stroke:none;stroke-width:1.99998534;stroke-linecap:round;stroke-linejoin:round;stroke-miterlimit:4;stroke-dasharray:none;stroke-opacity:1" />
      </g>
    </g>
    <path
       id="path1364"
       d="m -159.55884,78.00547 -1.88468,1.884684 -0.94234,-0.942344 -6.5964,6.596392 -0.94236,-0.94234 -14.13514,14.13516 0.94232,0.94234 -0.94232,0.942338 0.94232,0.94234 -0.94232,0.94234 5.65404,5.65406 9.42346,-9.423418 1.88468,1.884678 -7.53878,7.53874 0.94236,0.94234 -0.94236,0.94234 0.94236,0.94236 -0.94236,0.94234 2.82704,2.82702 0.9424,-0.94234 2.827,2.82704 18.84686,-18.846858 -0.94234,-0.94236 3.76298,-3.76298 -0.93596,-0.94874 0.94236,-0.94234 -3.76938,-3.76936 -0.94234,0.94234 -1.8847,-1.88468 -4.71172,4.7117 -1.88468,-1.88468 4.71172,-4.71172 -0.94234,-0.94234 0.94234,-0.94234 z"
       style="color:#000000;font-style:normal;font-variant:normal;font-weight:normal;font-stretch:normal;font-size:medium;line-height:normal;font-family:sans-serif;font-variant-ligatures:normal;font-variant-position:normal;font-variant-caps:normal;font-variant-numeric:normal;font-variant-alternates:normal;font-feature-settings:normal;text-indent:0;text-align:start;text-decoration:none;text-decoration-line:none;text-decoration-style:solid;text-decoration-color:#000000;letter-spacing:normal;word-spacing:normal;text-transform:none;writing-mode:lr-tb;direction:ltr;text-orientation:mixed;dominant-baseline:auto;baseline-shift:baseline;text-anchor:start;white-space:normal;shape-padding:0;clip-rule:nonzero;display:inline;overflow:visible;visibility:visible;opacity:1;isolation:auto;mix-blend-mode:normal;color-interpolation:sRGB;color-interpolation-filters:linearRGB;solid-color:#000000;solid-opacity:1;vector-effect:none;fill:#000000;fill-opacity:1;fill-rule:nonzero;stroke:none;stroke-width:0.73892337;stroke-linecap:butt;stroke-linejoin:miter;stroke-miterlimit:4;stroke-dasharray:none;stroke-dashoffset:0;stroke-opacity:1;color-rendering:auto;image-rendering:auto;shape-rendering:auto;text-rendering:auto;enable-background:accumulate"
       inkscape:connector-curvature="0"
       sodipodi:nodetypes="ccccccccccccccccccccccccccccccccccc"
       inkscape:transform-center-x="0.058578395"
       inkscape:transform-center-y="0.40265467" />
    <g
       transform="matrix(0.33316857,0,0,0.33316857,106.91868,-94.808905)"
       id="g1370">
      <path
         inkscape:connector-curvature="0"
         style="opacity:1;vector-effect:none;fill:#ffffff;fill-opacity:1;stroke:none;stroke-width:0.07937499;stroke-linecap:butt;stroke-linejoin:miter;stroke-miterlimit:4;stroke-dasharray:none;stroke-dashoffset:0;stroke-opacity:1"
         d="m -862.05298,524.35646 v 5.6565 h -11.31353 l -25.4558,25.45633 v 11.31353 l 56.56812,56.56863 h 11.31404 l -2.82877,2.82827 h 11.31403 l 25.4558,-25.45583 v -11.3135 h 5.65703 v -11.31406 l -2.82876,2.82876 v -11.31403 l -2.82827,2.82877 v -11.31404 l -11.31403,-11.31353 h -11.31353 l 2.82826,-2.82876 h -11.31353 l -2.82823,2.82876 v -11.31403 l -2.82877,2.82877 v -11.31404 l -2.82826,-2.82823 h -11.31353 l -2.82877,-2.82827 z m 0,22.62704 h 5.657 5.6565 v 11.31406 l -11.3135,5.6565 -5.65703,-11.31353 z m 36.76933,25.45583 2.82876,2.82876 v 11.31351 l -8.48526,2.82879 -11.31404,-5.65703 5.65701,-11.31353 z"
         id="path1366" />
      <path
         inkscape:connector-curvature="0"
         id="path1368"
         d="m -901.65636,558.28669 2.83374,2.83374 31.11008,-31.11008 2.82313,2.82314 8.48512,-8.48513 -2.821,-2.81651 -8.4936,8.47302 -2.82788,-2.82788 z m 45.25207,-33.93833 2.82826,2.82826 2.82861,-2.82862 -2.82826,-2.82825 z m 5.65687,-3.6e-4 5.65687,5.65687 2.82826,-2.82825 -5.65687,-5.65687 z m 8.48513,2.82862 8.4855,8.4855 2.82861,-2.82862 -8.4855,-8.4855 z m 8.4855,8.4855 -2.82826,2.82825 2.91383,2.92244 2.74304,2.73443 2.82826,-2.82825 -2.73874,-2.73874 z m 2.82861,8.48512 -2.82861,2.82861 2.82825,2.82826 2.82862,-2.82861 z m 2.82826,2.82826 2.82861,2.82861 2.82826,-2.82826 -2.82862,-2.82861 z m 5.65687,3.5e-4 5.65651,5.65652 2.82861,-2.82861 -5.65651,-5.65652 z m 8.48512,2.82791 c 6.60835,6.61545 11.65978,11.64219 16.97063,16.97062 l 2.82825,-2.82825 -16.97062,-16.97063 z m 16.97063,16.97062 -2.82861,2.82861 c 2.90386,2.90948 2.7502,2.75021 5.65686,5.65687 l 2.82862,-2.82861 c -2.90659,-2.90674 -2.75019,-2.75022 -5.65687,-5.65687 z m 2.82825,8.48548 -2.82825,2.82826 5.65689,5.65689 2.82825,-2.82826 z m 2.82864,8.48515 -8.48549,8.48548 2.82862,2.82861 8.48548,-8.48548 z m -5.65687,11.31409 -31.11264,31.11264 2.82825,2.82826 31.11264,-31.11264 z m -31.11264,31.11264 -5.65687,-5.65687 -2.82826,2.82826 5.65687,5.65687 z m -8.48513,-2.82861 -62.21179,-62.22264 -2.83409,2.83409 62.21721,62.21722 z m -33.94196,-67.8825 11.31374,11.31373 c 3.81069,-3.73803 7.59263,-7.4757 11.31373,-11.31373 l -2.82825,-2.82826 2.82863,-2.82863 c -1.8638,-1.86791 -3.79104,-3.79104 -5.65687,-5.65687 l -2.82863,2.82863 c 1.86366,1.86778 3.78796,3.79358 5.65651,5.65651 -3.81262,3.81674 -4.78266,4.78266 -8.48512,8.48513 l -5.65687,-5.65687 8.48512,-8.48513 -2.82825,-2.82825 z m 25.45648,25.45648 14.14199,14.14199 11.31376,-11.31375 -2.82826,-2.82826 -8.48331,8.48331 -8.48883,-8.48434 8.48083,-8.48943 -2.82278,-2.82277 -11.31192,11.31192 z m 22.62749,-2e-5 2.82753,-2.82753 -8.48323,-8.48773 -2.82864,2.82864 z"
         style="color:#000000;font-style:normal;font-variant:normal;font-weight:normal;font-stretch:normal;font-size:medium;line-height:normal;font-family:sans-serif;font-variant-ligatures:normal;font-variant-position:normal;font-variant-caps:normal;font-variant-numeric:normal;font-variant-alternates:normal;font-feature-settings:normal;text-indent:0;text-align:start;text-decoration:none;text-decoration-line:none;text-decoration-style:solid;text-decoration-color:#000000;letter-spacing:normal;word-spacing:normal;text-transform:none;writing-mode:lr-tb;direction:ltr;text-orientation:mixed;dominant-baseline:auto;baseline-shift:baseline;text-anchor:start;white-space:normal;shape-padding:0;clip-rule:nonzero;display:inline;overflow:visible;visibility:visible;opacity:1;isolation:auto;mix-blend-mode:normal;color-interpolation:sRGB;color-interpolation-filters:linearRGB;solid-color:#000000;solid-opacity:1;vector-effect:none;fill:#000000;fill-opacity:1;fill-rule:nonzero;stroke:none;stroke-width:4.00708389;stroke-linecap:butt;stroke-linejoin:miter;stroke-miterlimit:4;stroke-dasharray:none;stroke-dashoffset:0;stroke-opacity:1;color-rendering:auto;image-rendering:auto;shape-rendering:auto;text-rendering:auto;enable-background:accumulate" />
    </g>
  </g>
</svg>
